<?xml version="1.0" encoding="UTF-8" standalone="no"?>
<svg width="413px" height="155px" viewBox="0 0 413 155" version="1.1" xmlns="http://www.w3.org/2000/svg" xmlns:xlink="http://www.w3.org/1999/xlink">
    <!-- Generator: Sketch 45.2 (43514) - http://www.bohemiancoding.com/sketch -->
    <title>Group 4</title>
    <desc>Created with Sketch.</desc>
    <defs>
        <linearGradient x1="49.998641%" y1="3.02778894%" x2="49.998641%" y2="95.3663088%" id="linearGradient-1">
            <stop stop-color="#60EFFF" offset="0%"></stop>
            <stop stop-color="#1F89C7" offset="100%"></stop>
        </linearGradient>
    </defs>
    <g id="Page-1" stroke="none" stroke-width="1" fill="none" fill-rule="evenodd">
        <g id="PatternFly-Angular" transform="translate(-944.000000, -153.000000)">
            <g id="Group-4" transform="translate(944.000000, 153.000000)">
                <g id="logo-alt" fill-rule="nonzero" fill="url(#linearGradient-1)">
                    <g id="Layer_1">
                        <path d="M161.958842,79.7200189 L80.988225,0 L0,79.7200189 L32.2799573,125.756646 L56.9092169,120.062992 L81.1334915,154.34455 L105.313746,120.120593 L129.670081,125.747784 L161.958842,79.7200189 Z M77.6250875,14.7813463 L67.1306899,112.344435 L47.1059352,84.8509539 L77.6250875,14.7813463 Z M44.909331,81.8379696 L32.4384297,64.7082679 L75.327237,12.2779109 L44.909331,81.8379696 Z M63.8071705,113.261623 L63.8071705,113.261623 L64.9737038,114.878887 L58.2826448,116.420826 L42.8447872,94.5766898 L45.600447,88.2671463 L63.8071705,113.261623 Z M80.979421,13.4875354 L91.5222408,116.925944 L80.957411,131.494609 L70.4321992,116.925944 L80.979421,13.4875354 Z M98.1472696,113.261623 L116.552084,87.9968639 L119.431,94.5766898 L103.949122,116.482858 L96.9939423,114.878887 L98.1560736,113.270485 L98.1472696,113.261623 Z M94.8281522,112.344435 L84.4702169,14.7015909 L115.046595,84.5762406 L94.8281522,112.344435 Z M86.9133338,12.2601874 L129.520412,64.7082679 L117.252004,81.5543946 L86.9133338,12.2601874 Z M33.6621892,122.11448 L4.20392189,80.1099345 L61.8526769,23.3860749 L28.3753722,64.6019273 L43.4170488,85.254162 L39.1735088,94.948882 L54.8974973,117.205088 L33.6621892,122.11448 Z M81.1378935,148.757236 L60.3031685,119.27873 L67.0294436,117.719067 L80.9486069,136.997736 L94.9161924,117.719067 L101.924196,119.345193 L81.1378935,148.757236 Z M107.338672,117.26712 L123.102278,94.948882 L118.744286,84.9883105 L133.587872,64.6063581 L100.110567,23.3905058 L157.75492,80.1099345 L128.296653,122.11448 L107.338672,117.26712 Z" id="Shape"></path>
                    </g>
                </g>
                <g id="Group" transform="translate(195.000000, 61.000000)" stroke="#979797" stroke-linecap="square">
                    <path d="M0.5,23.5 L46.5,23.5" id="Line"></path>
                    <path d="M23.5,46.5 L23.5,0.5" id="Line"></path>
                </g>
                <g id="angular-logo" transform="translate(266.000000, 0.000000)">
                    <polyline id="Fill-1" fill="#000000" points="0.0945337621 25.9088643 72.696463 0.100891768 146.911847 25.5057698 134.811526 120.673171 72.696463 154.949672 11.388246 121.076502 0.0945337621 25.9088643"></polyline>
                    <polyline id="Fill-2" fill="#DE3641" points="0.0945337621 25.9088643 72.696463 0.100891768 72.696463 154.949672 11.388246 121.076502 0.0945337621 25.9088643"></polyline>
                    <polyline id="Fill-3" fill="#B03038" points="72.696463 0.100891768 146.911847 25.5057698 134.811526 120.673171 72.696463 154.949672 72.696463 0.100891768"></polyline>
                    <polyline id="Fill-4" fill="#FFFFFF" points="72.696463 17.4405716 119.887717 118.253659 103.753876 118.253659 93.6704325 95.2682927 72.696463 95.2682927 72.696463 81.5576448 88.0234582 81.5576448 72.696463 49.8620351 59.7895322 81.5576448 72.696463 81.5576448 72.696463 95.2682927 53.497365 95.2682927 44.4623006 118.253659 27.118664 118.253659 72.696463 17.4405716"></polyline>
                </g>
            </g>
        </g>
    </g>
</svg>